<svg version="1" xmlns="http://www.w3.org/2000/svg" width="346.667" height="346.667" viewBox="0 0 260.000000 260.000000"><path d="M128.5 3.2c-.3 1.2-1.8 8.5-3.4 16.1l-2.8 13.9 2.6.9c10.2 3.7 17 9.4 17.2 14.7.3 3.9-.1 16.6-.5 16.9-.7.7-36.6 1.5-40 .9-4.7-.9-4.3-2.9.7-3.7 2.1-.3 4.1-.9 4.5-1.4.6-.7-3.8-.1-8 1.1-2.4.7-2.3 4.1.2 4.9 1.1.3 16.5.5 34.2.3 35.4-.3 37.6 0 41.4 5.6 1.7 2.8 1.7 3.3-.2 30.8-.6 7.8-.5 8.8 1 8.8 1.4 0 1.5.4.6 2-1 1.8-2.1 2-14.8 2-8.7.1-15.9.6-19.7 1.6-3.3.8-11.4 1.9-17.9 2.4-12.4 1-31.5 5.1-35.3 7.6-1.3.8-2.3 2.2-2.3 3.1 0 1.6-.1 1.6-1.6.1-1.3-1.2-1.9-4.7-2.5-14.1-.4-6.9-1.3-15.3-1.9-18.7-.6-3.4-1-6.3-.8-6.5.2-.1 2.9-1 6-1.9 3.2-.9 6.4-1.9 7.1-2.2 1-.3 1.9.6 2.7 2.8l1.3 3.3.7-3.4c.4-1.8 1.4-3.9 2.1-4.7 4.2-4.1 25.7-5.7 42.9-3.2 13.3 2 19.5 1.6 22.5-1.2 1.4-1.3 2.5-3.1 2.5-4 0-2.7-4.4-6-8.6-6.5l-3.9-.5 3.7 1.3c4 1.3 7.8 4.1 7.8 5.6 0 1.6-3 4.1-5.8 4.8-1.4.3-7.8.1-14.2-.6-26.2-2.8-45-1-48.7 4.6-1.4 2.2-1.6 2.2-2.8.6-1.1-1.5-1.5-1.5-2.9-.4-.9.8-1.8 1.2-1.9 1-1.1-1.4-3.3-22.7-2.6-24.1 1.1-2.1 5.4-3.4 16.1-4.9 6.2-.8 8.5-1.5 7.9-2.3-.5-.6-1-4.9-1.2-9.6-.2-4.7-.8-8.8-1.3-9.1-.5-.4-.9-2.5-.9-4.8 0-2.2-.4-3.8-.8-3.5-.5.3-.9 0-.9-.6 0-1.4-3.4-.8-13.9 2.5-6.4 2.1-8 3.1-13.2 8.5L73 46.2l7 7.6c3.8 4.1 6.7 7.8 6.4 8.1-.3.3-4.7-3.9-9.8-9.4l-9.3-10-13.9 13.4c-7.6 7.4-16.1 15.6-18.9 18.2l-4.9 4.8 2.9 3.1c1.6 1.6 2.4 3 1.8 3-1.6 0-11 15-14.4 23.1-2.9 6.9-3 7.2-1.8 14.4.6 4 1 8.9.7 10.9-.4 3.4-.2 3.6 2.4 3.6 1.5 0 2.8.4 2.8.9s-1.1 3.9-2.5 7.6c-1.5 3.8-2.2 7.2-1.8 7.6 1.3 1.3 17.7 7.3 33.7 12.4 8.2 2.6 16.1 5.1 17.4 5.6l2.5 1-2.2 1.6c-2.9 1.9-6.1 8.8-6.1 12.8 0 9.9 9.6 18.5 20.6 18.5 5.3 0 13.4-3.1 13.4-5.1 0-1.3 2.7-2.6 11.8-5.7 6.4-2.2 15.5-5.6 20.2-7.6 12.4-5.2 23.2-4.7 24.6 1.1.9 3.6-1.2 5.3-6.7 5.3-2.6 0-5.1.4-5.4 1-.8 1.3 6.5 1.3 9.9 0 5.8-2.2 5.2-8.5-1.2-11.6-5-2.4-11.9-1.4-22.7 3.4-9 3.9-28.2 10.5-34.1 11.7-3.8.7-8.3-.9-10.7-3.8-1.6-2-1.7-2-1.1-.2.4 1.1 1.4 2.6 2.3 3.4 1.4 1.1 1 1.3-2.9.8-3.5-.5-5.2-1.4-7.9-4.3-3-3.2-3.3-4.1-2.8-7.8.8-5.5 5.2-9.6 10.6-9.6 3.1 0 4 .5 4.9 2.5 1.5 3.2 1.6 6.8.2 6-.5-.3-1-.3-1.1.2 0 .4-.2 1.8-.3 3-.3 3.1.8 2.9 2.2-.2 2-4.3 1.4-8-1.9-12.5-2.5-3.4-3-5-2.6-7.6.4-2.3.2-3.3-.6-3.1-.8.1-1.1-1.1-1-3.3.2-3.7 4-8 7-8 1.5 0 1.5.2 0 1.8-4 4.4.5 8.3 7.3 6.3 1.9-.6 7.6-2.2 12.5-3.7 5-1.4 10.6-3 12.5-3.6 1.9-.6 5.8-2.1 8.7-3.5 7.8-3.6 11.6-4 14.9-1.4 1.8 1.4 2.2 2.1 1.1 2.1-4 0-6.3 9.2-3.1 12.5 1.2 1.2 2.7 1.4 6 .9l4.4-.6V177h-3.5c-3.2 0-3.5-.2-3.5-3 0-2.3-.4-3-2-3s-2 .7-2 3c0 3.5 2.3 5 7.8 5 6.4 0 7.2-1.7 7.2-15.1 0-7.6-.4-11.9-1.2-12.7-.9-.9.6-1.2 7-1.2h8.2v3.6c0 2.3-1.2 5.8-3.1 9.1-2.4 4.3-3 6.3-2.7 9.8.2 3.4 0 4.1-.9 3.3-2.3-1.9-1.3.5 1.3 3.3 3.1 3.3 3.6 8.6.9 10.5-2.5 1.8-3.3 1.8-3.8-.4-.3-.9-.5-.1-.6 1.8 0 2-.8 4.5-1.6 5.7-2.8 4-7.3 4.6-28 3.9-15.8-.6-19.8-.5-22.7.7-3.4 1.4-8.8 7.2-8.8 9.4 0 1.9 3.7 4.3 6.6 4.2 3-.1 2.7-.3-1.7-1.3-4-.9-4.2-3.1-.8-7.1 4.4-5 7.7-5.5 27.8-4.6 9.5.5 18.6.5 20.2.1l2.9-.9v5c0 6.6-2.1 10.4-6.4 11.9-7.9 2.6-13.5 12.6-13.6 24 0 8.1-1.9 12.8-5.9 15-2.6 1.3-2.6 1 0-3.9 1.9-3.6 1.9-4.2.5-6.9-.8-1.5-2.3-3.5-3.3-4.3-1.7-1.3-1.7-1.3-.2.6 4 4.9 4.2 6.3 1.4 11.7-1.4 2.7-2.4 5.2-2.1 5.5.9 1 7.5-4.7 9.1-7.7.9-1.8 1.5-5.6 1.5-10 0-11.1 4.3-19 12.4-22.9 5.6-2.6 7.6-6.2 7.6-13.6 0-3 .3-5.5.6-5.5.4 0 2.1 1.3 4 3 5.9 5.2 15.1 5.3 23.2.3 5.2-3.2 9.2-8.4 9.2-11.9 0-3.9-4-13.1-7.1-16.5-1.6-1.7-2.8-3.3-2.7-3.4.2-.1 6.8-1.4 14.8-2.9s16.5-3.1 19-3.5c2.9-.6 3.6-.9 1.8-1-1.4-.1-9.8 1.3-18.5 3-16.8 3.2-29.8 4.4-28.6 2.6.3-.6-.6-2-2.1-3.2l-2.6-2.1 2-2.2c1.1-1.1 2-3.1 2-4.3 0-2.9 1-1.9 1.4 1.3.6 5.8 3.7 6.3 8.4 1.5l3.2-3.3-4.1-2.4c-3.4-1.8-4.6-2.1-6-1.1-2.8 1.7-2.5-1.6.3-4.7 2.1-2.2 2.2-2.4.5-3.3-2.7-1.6-2-4.4 1.9-7.8l3.5-3.2-2.3-1.9c-1.3-1.1-2.9-1.9-3.5-2-.7 0-1.3-1.1-1.3-2.4 0-2.2.7-2.5 8.8-4.1 10-2 11.6-2.4 11.1-2.9-.2-.2-4.6.3-9.7 1.1-8.9 1.5-11.6 1.3-9.6-.7.8-.8 30.1-7 39.4-8.3l3.5-.5 4.2 24.6c3.4 19.1 4 24.8 3 25.4-.8.5-.7.8.6.8 2.2 0 2.1-1.2-.3-13.8-1.1-5.6-2-10.8-2-11.4 0-.7 2.6-.9 8.3-.5 8.2.6 7.3.2-5-1.8-3.5-.6-4.6-2.2-1.5-2.2 6.8.1 11.2-.4 11.2-1.3 0-.6-2.1-1-4.6-1-3.9 0-4.5-.2-3.5-1.4 1-1.1.8-1.5-.6-1.9-1-.3-.3-.5 1.5-.6 4.5-.1 4-2.1-.5-2.3l-3.8-.1 3.5-.4c6-.7 5.9-2.3-.2-2.3-3.6 0-5.8.5-6.1 1.2-.4.9-.6.7-.6-.3-.1-1.3 1.7-1.8 8.2-2.7 4.5-.7 9.6-1.2 11.3-1.2h3.2l-1.9 6.1c-1 3.3-1.8 8-1.7 10.2.1 4 .1 4 .5.7.2-1.9 1.3-7 2.4-11.2 2.1-7.6 2.1-7.9.4-12.5-2.3-6.2-9-19.6-12.1-24.3-2.1-3.1-2.9-3.6-5.2-3.2-2.5.5-2.6.4-1.2-1.4.8-1 2.2-2.8 3.2-4 1.9-2.1 1.8-2.2-7.4-9.6-5.1-4.1-14.2-11.6-20.2-16.6l-11-9.2-2.8 3.3c-1.5 1.7-6 7.1-10 11.9-3.9 4.8-7.3 8.6-7.5 8.4-.6-.6 6.1-39.5 8.6-50.7.6-2.4 1.1-4.9 1.1-5.5 0-.6-3.7-1.9-8.2-2.8-4.6-.9-14.8-3-22.8-4.5-8-1.6-15.7-3.2-17.2-3.6-2.3-.6-2.8-.3-3.3 1.7zm33.3 5.9c16.2 3.1 17.3 3.5 16.7 5.4-1 3.8-5.3 26.1-7.6 39.2-1.9 11.5-2.4 13.3-4 13.3-1.1 0-1.9-.2-1.9-.5 0-1.8 6.4-41.2 7.4-45.8.9-4 1-5.9.3-6.4-.6-.3-7.2-1.7-14.6-2.9C138 8 136.3 7.7 138 8.8c.8.5 8.7 2.2 17.5 3.6 8.7 1.5 16.1 2.9 16.3 3.1.3.2 0 2.4-.7 4.8-.6 2.5-2.4 13-4.1 23.3-1.7 10.4-3.3 19.7-3.6 20.6-.5 1.6-1.9 1.8-10.6 1.8-9.9 0-10 0-9.4-2.3.3-1.2.6-3.3.6-4.6 0-2.3.1-2.4 1.3-.6.8 1 1.9 1.5 2.6 1.1 1-.6 1-2.1.2-6.5-.1-.3-.6 0-1.3.7-2.3 2.3-2.9 1.1-2.5-4.8.2-3.4 0-6.3-.6-6.7-.6-.3-.7-.1-.3.5.4.7.3 1.2-.3 1.2-1 0-3.1-3.1-3.1-4.5 0-.3.9-.1 1.9.5 1.1.5 2.2 1 2.5 1 .9 0 .7-2.8-.1-3.3-.5-.2-.1-.2.7.1.8.2 3.4.6 5.6.9 4.4.6 5.4 2.6 2.4 4.9-1.2 1-1.2 1.4-.1 2.8.7.9 2 1.6 2.7 1.6.8 0 1.4.6 1.4 1.3 0 .7-1.1 1.3-2.6 1.2-3.8 0-5.3 2.8-3 5.4 2.4 2.6 4 2.6 6.5 0 2.3-2.5 3.1-6.1 1.9-8.4-.6-1-.6-2.1.2-3 .8-1 .8-1.9.1-3.4-1.2-2.2-.1-6.4 2.6-9.3 1.4-1.6 1.4-1.8-.1-2.4-.9-.4-2.5.1-3.5 1-2.3 2.1-3.1 2-3.1-.4 0-1.1-.6-2-1.3-2-.7 0-1.8.9-2.5 2-1.5 2.5-.4 2.7 1.4.2 1.2-1.6 1.3-1.5 1.4.5 0 2.7 1.6 2.9 4.2.6 2.5-2.3 3.4-.9 1.2 1.9-2.1 2.5-4.9 3.4-5.9 1.8-.3-.5-1.1-1-1.7-1-.7 0-.6.6.2 1.5s.9 1.5.2 1.5c-.6 0-1.4-.5-1.7-1-.4-.6-1.5-.8-2.6-.5-1.2.4-3.4-.2-5.5-1.4-1.9-1.2-3.2-1.7-2.9-1.1.3.5.1 1-.5 1s-1.5-1-2-2.3c-.9-2.2-.9-2.2-1 .3-.1 4.6-1.3 5.3-5.3 3.4s-3.9-.8-1.2-14.2c.7-3.4.9-6.2.5-6.2s-1.5 4-2.5 9c-1.2 6.4-2.2 9-3.2 9-1.1 0-1.3-.8-.9-2.8.3-1.5.8-4.5 1.2-6.7.3-2.2 1.5-7.9 2.5-12.6l2-8.6 7.2 1.7c4 .9 15 3.2 24.5 5.1zM107 37.6c1.1 4.4 1.9 10.6 1.9 13.9l-.1 6-.9-5.5c-1.3-7.5-4-18.2-4.6-17.6-.3.2.2 3.9 1.1 8.1.9 4.3 1.5 9.4 1.5 11.4-.1 2.1-.3 2.7-.6 1.4-.2-1.2-1.1-2.7-2-3.4-1.3-1.1-1.9-.9-3.9 1.4L97 56.1v-2.8c0-2.8-4.7-14-5.5-13.1-.2.2.7 3.1 2 6.4 2.5 6 3.3 12.4 1.6 12.4-.5 0-1.7-2.6-2.6-5.8-.9-3.1-3.2-8.5-5-11.9l-3.4-6.1 8.2-2.6c8.1-2.5 11.9-3.4 12.5-3 .2.1 1.2 3.7 2.2 8zm-21.1 3.2c2.1 4 6.1 15.9 6.1 17.6-.1.6-1.6-1.9-3.5-5.6-3-5.8-5.5-9.1-5.5-7.3 0 .3 1.6 3.7 3.5 7.5 4.2 8.3 3 10.2-2.3 3.9-2-2.4-5.1-5.8-6.9-7.5l-3.2-3.2 4.2-4.5c2.3-2.5 4.5-4.6 4.9-4.6.4-.1 1.6 1.6 2.7 3.7zm-.7 25.6c-.5 3-.5 3-9.9-6.8l-9.4-9.9-13 12.9C45.8 69.7 40 75.9 40 76.5c0 .5 5.8-4.8 13-12l12.9-12.9 10 10.4c8.5 8.8 10.1 11 10.6 14.4.3 2.3.9 5.4 1.2 7l.5 2.8-3.6-3.8c-3.5-3.7-4.7-7.4-2.5-7.4.6 0 .9.7.5 1.5-.3.8-.1 1.5.5 1.5s.9-.8.7-1.8c-.2-1-1.2-1.7-2.5-1.7-1.2 0-2.5-.3-2.9-.8-.4-.4-1.6-.7-2.6-.7s-1.8-.5-1.8-1c0-.6.4-1 .8-1 .5 0 1.7-.6 2.7-1.4 1.6-1.2 1.7-1.6.6-3-1-1.1-1.7-1.3-2.6-.6-.8.7-3 .5-6.9-.5-8.1-2.1-8.3-2.1-9.7 3.5-1.1 4.4-1.6 5-3.9 5-3.7 0-6.4 3.2-5.6 6.5.6 2.4 1.8 3.8 6.1 7.3 1.8 1.6 4.5.9 4.4-1 0-1-.2-1-.6-.1-.7 2-2.2 1.5-1.6-.5.2-1-.3-2.4-1.1-3.1-2.2-1.9-2-3.4.3-2.2 1.1.6 3.6 4 5.6 7.7 3.5 6.2 3.9 6.6 6.6 6 1.7-.3 3.1-.1 3.6.7.4.7 2.1 1.8 3.6 2.5 2.7 1.1 2.9 1.6 2.5 5.6-.1 2.4 0 4.2.5 3.9.4-.2.7 1.1.7 3s.3 5.6.6 8.3l.6 4.9L61.5 104C50.6 93.3 42.7 85.9 43.8 87.6c1.1 1.7 7.9 8.6 14.9 15.4 16.7 16.1 21.8 21.9 22.7 25.2.4 2-6.3-4.3-24.6-22.8-13.9-14.1-25.3-25.9-25.3-26.3 0-.4 8.1-8.4 18-17.7l18-17.1 9.1 9.5c8 8.5 9 9.9 8.6 12.6zm124.9-3.8c10.4 8.6 18.9 15.9 18.9 16.1 0 .3-2.8 3.7-6.3 7.6-3.4 4-10 12-14.6 17.9-6.5 8.4-8.9 10.8-10.8 10.8-2.1 0-1.2-1.6 8.4-14.3 5.8-7.8 12.2-16 14-18.1 1.8-2.2 3.3-4.3 3.3-4.7 0-.7-24.4-20.2-27.8-22.3-5.6-3.3 14.6 13.3 26.7 22.1.2.1-1.2 2-3 4-1.9 2.1-7 8.6-11.4 14.3-15.1 20.1-14.6 19.7-23.1 21.6-4.1.9-7.7 1.4-8 1.1-.3-.3 0-1.4.8-2.6 1.1-1.8 1-2.6-.5-5.4-2.5-4.6-2-11.2.8-11.2 1.7 0 2.1-.8 2.5-5.4.3-3.1 1-5.6 1.8-5.9.6-.2 1.2.5 1.2 1.5 0 1.4.2 1.5.9.4.5-.7 1.3-1.1 1.9-.7.6.3 1.5-.2 2.1-1.1.9-1.6 1.3-1.5 4.2 1.3 2.8 2.8 3 3.4 1.9 5.5-1.6 3-5.1 5.8-7.1 5.9-.9 0-2.2-1.1-2.9-2.5-.7-1.4-1.7-2.5-2.1-2.5-1.1 0-1.7 6.3-.8 8.2.6 1 .5 1.9-.1 2.3-1.9 1.2-1.1 2.6.9 1.5 1.4-.7 2.1-.6 2.4.3.5 1.5 4.4-1.7 5.2-4.4.6-1.9 3.5-2.7 3.5-1 0 1.7 4-.1 6-2.6 1.9-2.4 2.7-10.9 1-9.8-1.1.7-4.6-2.3-3.7-3.2.5-.4 1.4-.1 2 .8.7.9 1.8 1.4 2.5 1.1.7-.2-.6-1.6-3-3.1s-5.9-4.5-7.8-6.7l-3.5-3.9-2.2 2.2c-2.4 2.5-7 3.1-7 1 0-.6-.3-2.6-.7-4.3-.6-2.8-.1-3.9 4.4-9.4 2.9-3.4 5-6.4 4.7-6.6-.3-.3-2.9 2.4-5.8 5.9-3 3.7-5.9 6.3-6.6 6-.9-.3-1-1-.4-2.1C174.2 66 190 47 190.6 47c.3 0 9.1 7 19.5 15.6zM72 68.6c0 .9-.5 1.4-1.2 1.2-1.8-.6-2.1-2.8-.4-2.8.9 0 1.6.7 1.6 1.6zm6-.6c0 .5-.4 1-.9 1-.6 0-1.3-.5-1.6-1-.3-.6.1-1 .9-1 .9 0 1.6.4 1.6 1zm-10.5 4c-2.1 4.1-3 4.3-3.2.5-.2-2.5.2-3.5 1.5-3.8 2.8-.6 3.3.3 1.7 3.3zm-9.7 3.8c.8.5-.1.8-2.2.8-1.9-.1-3.2-.4-2.9-.9.6-.9 3.5-.9 5.1.1zm137.3 11.5c-1.3 1.3-3.1-.1-2.4-1.9.4-1.1 0-1.5-1.3-1.2-1.3.2-1.8-.2-1.6-1.4.2-1.3-.2-1.6-1.4-1.1-1.4.5-1.6.3-1.1-1.1.5-1.4.3-1.7-.8-1.2-1.5.6-2-.5-.8-1.8.4-.3 2.8 1.5 5.5 4.1 2.9 2.8 4.4 5.1 3.9 5.6zM65.5 81c.3.5.1 1-.4 1-.6 0-1.1-.5-1.1-1 0-.6.2-1 .4-1 .3 0 .8.4 1.1 1zM80 83.4c0 .3-.4.8-1 1.1-.5.3-1 .1-1-.4 0-.6.5-1.1 1-1.1.6 0 1 .2 1 .4zm-1.6 3.2c.9.8 2.1 1.2 2.7.8.8-.4.9-.3.5.4-.4.8 0 1.2 1.1 1.3 1 0 .2.6-1.7 1.2-2.9 1-3.5 1.7-3.3 3.9.1 2.1-.2 2.5-1.8 2.1-2.5-.7-3.4-2.2-2-3.6 1.8-1.8 1.4-4.7-.6-4-1.6.6-1.6.4.1-1.5 2.3-2.6 3-2.7 5-.6zm-37.1 5.5l6.2 6.1-4.8-2.7c-2.6-1.5-5.1-2.5-5.4-2.1-.8.8-1.1.6 6.9 5 6.5 3.5 8.2 5 8.3 7.1 0 .5.8.9 1.8.7 1.8-.3 2.1.6.9 2.6-.5.7-1.6 1-2.5.6-.9-.3-1.4-1-1.1-1.5.3-.5-.2-.6-1-.3s-3.6-.4-6.3-1.7c-7.4-3.4-8-3.2-10.2 2.5-1.1 2.8-2.2 6.3-2.5 7.8l-.6 2.7-4.1-1.4c-2.3-.8-5-1.5-6-1.5s-2-.4-2.3-.8C17.5 113.3 32.2 86 34.3 86c.5 0 3.7 2.7 7 6.1zM234.8 95c3.5 6.3 10.4 22.1 9.9 22.7-.1.1-4.5.6-9.7 1.2-5.2.6-10.5 1.4-11.7 1.7-1.8.5-2.2.1-2.5-2.3-.3-2.6 0-2.9 4.2-3.8l4.5-1.1-7.5-.7c-4.1-.4-9.7-.3-12.5.2-2.7.5-5.2.8-5.4.6-.2-.2 2.3-4 5.5-8.5 5.1-6.9 6.5-8.1 10.2-9.1 2.3-.6 4.5-1.5 4.8-2 .7-1.2-.9-1.1-4 .1-3.6 1.3-3.2-.2 1-4 5.7-4.9 8-4.1 13.2 5zM72 92c0 .5-.7 1-1.5 1s-1.5-.5-1.5-1c0-.6.7-1 1.5-1s1.5.4 1.5 1zm-17.5 19.7c5.5 1.9 10.5 4 11 4.6.7.7.5.8-.5.5-.8-.3-5.8-1.8-11-3.2-5.2-1.5-10.3-3.2-11.3-3.8-1.4-.7-2.3-.6-3.2.4-1.7 1.7-11.9 32.7-11.1 33.6.4.3 1-.5 1.3-1.8 1.1-4.1 10.1-30.1 10.6-30.7.3-.2 3.8.6 7.9 2 4 1.4 10.2 3.3 13.8 4.2 6.5 1.8 11 4.7 11 7.2 0 1.4-.1 1.5-4.7 1.9-3.5.2-4.1-.4-2.1-2.4.7-.7.8-1.2.2-1.2-.5 0-1.5.5-2.2 1.2-.8.8-1.5.8-2.7-.2-1.1-.9-1.5-.9-1.5-.1 0 .9-.6.8-2-.2-1.7-1.2-2.7-1.2-5.7-.2-2 .7-4.2 2.1-5 3.1-1.2 1.7-1.4 1.6-3.8-.6-2.7-2.5-4.2-2.2-3 .7.5 1 .7 2.2.6 2.7-.1.5.6.3 1.5-.5 1.6-1.2 1.7-1.2 1.1.4-.4 1-.7 2.5-.7 3.3 0 2.6-1.8 1.4-2.5-1.7-.5-2.4-1-2.8-1.9-1.9-.8 1-.8 1.4.2 1.7.6.3 1.2.9 1.2 1.4 0 .6-.4.8-.9.4-1.9-1.1-2.3 1.7-.5 3.3 1.7 1.6 1.7 1.6.5-.1-1.8-2.2-.8-3.3 1.2-1.3.8.8 1.7 1.2 2.1.9.3-.3 0 .6-.7 2.1-.7 1.4-1.7 2.4-2.3 2.2-.6-.2-1.6-.1-2.3.4-.8.4-.2.9 1.8 1.3 2.1.4 3.1 1.3 3.1 2.4 0 1 1.1 2.9 2.3 4.3 3.2 3.5 8.8 6.6 7.2 4-.3-.5 0-.7.8-.4.8.3 1.8.1 2.2-.5.4-.7-.5-1.1-2.4-1.1-2.6 0-3.3-.6-4.6-3.6-.8-2-1.5-4.9-1.5-6.5 0-1.5-.4-3-1-3.4-1-.6-.2-3.6.8-3.2.4.1 2.7-1.7 5.1-4.1 4.7-4.6 6.5-5.1 9.3-2.5 1.1 1 1.8 1.2 1.8.4 0-.8.6-.8 2-.1 1.1.5 2.9 1.4 4 2 1.1.5 3.2 1 4.6 1 2.4 0 2.6.3 2.1 2.8-.5 2.7-.4 2.8 3.5 2.9 2.3.1 4.5.6 5 1.1 1.2 1.2-1.1 6.2-2.9 6.2-.7 0-1.3.4-1.3.9 0 1.3 2.6 3.2 3.3 2.4.4-.3.7 0 .7.7s.9.1 2-1.3c1.1-1.4 2-3.1 2-3.8 0-2 1.1-.3 1.5 2.3.3 1.2.7 3.5 1.1 5 .5 2.3.3 2.8-1.2 2.8-.9 0-2.5.7-3.4 1.5-1.4 1.3-1.6 1.2-1.6-.4 0-1.2.5-1.7 1.5-1.3 2.9 1.1.1-1.6-2.9-2.8-2.4-1-3.4-1-4.3-.1-.9.9-.9 1.4.3 2.1 1.1.7 1.2 1.3.1 3.6-.9 2-1.5 2.4-2.3 1.6-1.7-1.7-3.3-1.5-1.9.2.9 1.1.6 1.2-1.4.8-1.4-.2-2.3-.8-2-1.2.6-1-.4-4-1.4-4-.9 0-3 4.9-2.3 5.4.4.2 2.8.7 5.4 1.1 3.3.5 4.8 1.2 5.1 2.6.8 2.8 2.5 2.3 3-.9.4-2.5.4-2.4.6.6 0 1.8.6 4.3 1.2 5.4 1 1.8.9 2-.7 1.5-1.1-.3-8-2.4-15.6-4.6-7.5-2.3-15.3-4.8-17.5-5.6-3.5-1.4-3.6-1.4-1.8 0 1.1.9 7.9 3.4 15 5.6 7.2 2.2 14.1 4.4 15.5 4.9l2.5.8-2.8 1.1c-2.4.9-5.6.1-25-6.4-31.1-10.4-31.8-10.7-31.1-12.5 1.6-3.7 11.3-30.3 13.8-37.7l2.8-8.3 3.6 1.6c2 .9 8.2 3.2 13.7 5.1zm-29.6 6.9c4 1.1 5.1 1.9 4.7 3.1-.3.8-.9 2.5-1.2 3.7-.4 1.8-1.1 2.2-3 1.8-1.4-.2-2.4 0-2.4.7 0 .6 1 1.2 2.3 1.2l2.2.2-2.2.4c-2.5.5-3.2 2.3-.9 2.3.9 0 1.2.7.9 2-.3 1.2-1.4 2-2.8 2-2 0-2.2-.6-2.8-7.8-.3-4.3-.9-8.6-1.3-9.5-.8-2.1-.1-2.1 6.5-.1zm126.4 1.4c-.3 1.1-.7 2-.9 2-.2 0-.4-.9-.4-2s.4-2 .9-2 .7.9.4 2zm-3.3 0c0 .5-.2 1-.4 1-.3 0-.8-.5-1.1-1-.3-.6-.1-1 .4-1 .6 0 1.1.4 1.1 1zm26 .7c0 1-.5 2.5-1 3.3-.8 1.2-1 1.1-1-.8 0-1.4-.8-2.6-2.2-3.2-2.1-.8-2-.9 1-.9 2.4-.1 3.2.3 3.2 1.6zm-3.2 3c.5 1.7-2.6 2.9-4 1.5-.6-.6-.7-1.5-.3-2.2.9-1.4 3.7-.9 4.3.7zM113 125c0 .5-.7.7-1.5.4-.8-.4-1.5-.8-1.5-1 0-.2.7-.4 1.5-.4s1.5.4 1.5 1zm-70 2.1c0 .6-.4.7-1 .4-.5-.3-1-1.1-1-1.6 0-.6.5-.7 1-.4.6.3 1 1.1 1 1.6zm38 6.7c0 .7-.6 1.2-1.2.9-.7-.2-1.3-1.2-1.3-2.2 0-1-.6-2-1.3-2.3-.6-.2-1.2-.9-1.2-1.5s1.1 0 2.5 1.3 2.5 3 2.5 3.8zm11.7-3c-3.6 1.6-3.7 1.9-3.2 5.7l.5 4-1.4-3.5c-2.1-5.1-1.9-5.6 1.7-6.8 5-1.6 6.6-1.2 2.4.6zm17-.2c.8 2.1-1.3 4.2-2.8 2.7-1.3-1.3-.5-4.3 1.1-4.3.6 0 1.3.7 1.7 1.6zm53 2c.8 2.1-1.3 4.2-2.8 2.7-1.3-1.3-.5-4.3 1.1-4.3.6 0 1.3.7 1.7 1.6zm-77.3 2.3c-.2.3-1.2-.3-2.2-1.3-1.6-1.7-1.6-1.8.5-.5 1.2.7 2 1.5 1.7 1.8zm93.6-.1c0 .4-.9.8-1.9.8-1.5 0-1.7-.3-.9-1.3 1-1.2 2.8-.9 2.8.5zm-74.2 7.5c.2 1.2-.3 1.7-1.7 1.7-1.5 0-2.1-.6-2.1-2.1 0-2.5 3.3-2.2 3.8.4zm51 0c.2 1.2-.3 1.7-1.7 1.7-1.2 0-2.1-.6-2.1-1.3 0-3.1 3.2-3.4 3.8-.4zm-72.1 1.2c0 .8-.7 1.5-1.5 1.5-1.2 0-1.2-.3-.2-1.5.7-.8 1.3-1.5 1.5-1.5.1 0 .2.7.2 1.5zm89.3 2.9c0 2-.4 2.3-2.2 1.8-1.9-.5-2-.7-.5-1 .9-.2 1.7-1 1.7-1.8s.2-1.4.5-1.4.5 1.1.5 2.4zM81.5 151c.3.5.1 1-.4 1-.6 0-1.1-.5-1.1-1 0-.6.2-1 .4-1 .3 0 .8.4 1.1 1zm37.2 1.2c-.3.8-.6.5-.6-.6-.1-1.1.2-1.7.5-1.3.3.3.4 1.2.1 1.9zm-17.9.5c.5 1.7-2.6 2.9-4 1.5-.6-.6-.7-1.5-.3-2.2.9-1.4 3.7-.9 4.3.7zm53 4l-.3 5.8-3.7.3-3.8.3V158c0-4.3.3-5.2 2.3-6 5.1-2.1 5.8-1.5 5.5 4.7zm-73.5-2.2c-.3.9-.8 1.4-1 1.1-.3-.3-.2-.9.2-1.5.9-1.6 1.5-1.3.8.4zm102.1 2c3.2 2.4.6 4-3.5 2.1-3.4-1.5-3.4-1.5-.4-.9 2.9.5 2.9.5 1-1-2.7-2.2.2-2.3 2.9-.2zm-4 4.3c.3.5-.1.9-.9.9s-1.2-.4-.9-.9c.3-.4.7-.8.9-.8.2 0 .6.4.9.8zm-6.7 8.2c.4 1.3.3 1.3-.6 0-.9-1.3-1.5-.8-1.3 1.1.1.3-.5.6-1.2.6-.8 0-1.1-.8-.8-1.9.5-2.2 3.3-2 3.9.2zm9.8 9.6c2.1.8 5.6 7.8 5.7 11.5.3 9.2-17.1 13.7-22.1 5.7-1.1-1.8-1-2.3 1.6-4.4 1.5-1.3 3.3-2.2 3.9-2 .8.3.9-.8.3-3.7-1.2-6.1-1.1-6.5 1.4-7 3.6-.7 7.4-.7 9.2-.1z"/><path d="M130.6 9.2c-.3 1.7-.4 3.3-.1 3.6.8.8 1.3-.1 1.8-3.6.7-4.1-.8-4.2-1.7 0zM133.3 12c-.1 1.1.2 2 .8 2 .5 0 .9-.9.9-2s-.4-2-.8-2-.8.9-.9 2zM141.5 27.7c1.6 3.4 2.9 4.1 4 2.3.3-.6-.1-.7-.9-.4-.9.3-1.6.2-1.6-.3s-.7-1.8-1.5-2.9c-1.4-1.7-1.4-1.5 0 1.3zM146 26.9c0 .6.6.8 1.4.5.8-.3 1.6.2 2 1.3.4 1.5.5 1.5.3-.2-.2-2-3.7-3.5-3.7-1.6zM137.1 28.3c.2.1 1.2.9 2.2 1.6 1.5 1.2 1.7 1.2 1.1-.3-.3-.9-1.3-1.6-2.2-1.6-.8 0-1.3.1-1.1.3zM144.4 33.2c-.4.7-.3.8.5.4.6-.4 1.9-.2 2.7.5 1.2 1 1.3.9.8-.5-.7-1.9-3-2.1-4-.4zM149 40.9c0 1.1 2.6 2.2 3.4 1.4 1.2-1.2.5-2.3-1.4-2.3-1.1 0-2 .4-2 .9zM148.7 46.1c-.9.6-1.5 1.4-1.2 2 .4.5.1.9-.6.9-1 0-1 .3-.1 1.2 1 1 1.7.7 3.4-1 2.5-2.5 1.5-4.7-1.5-3.1zM93.5 36c-2.3 1.2-2.9 1.8-1.5 1.4 1.4-.3 4-.8 5.8-1.1 1.7-.3 3.2-.9 3.2-1.4 0-1.5-3.2-1-7.5 1.1zM99.1 40.7c-.6 1-1.1 1.2-1.1.5 0-.6-.4-1.2-.8-1.2-.5 0-.7 1.3-.4 3 .5 3.4.6 3.4 3.3 2 1.1-.6 1.9-2.1 1.9-3.5 0-2.9-1.5-3.3-2.9-.8zM79.4 45.4c-.8.9-.3 2.2 2.2 5.2 1.9 2.1 3.4 3.4 3.4 2.8 0-.5-.5-1.5-1-2-.6-.6-1.3-2.1-1.5-3.4-.6-3.1-1.8-4.1-3.1-2.6zM37 76.6c0 .6 1.4 2.3 3 3.9 1.7 1.6 3 2.4 3 1.9 0-.6-1.3-2.3-3-3.9-1.6-1.6-3-2.4-3-1.9zM39.5 84c.3.5.8 1 1.1 1 .2 0 .4-.5.4-1 0-.6-.5-1-1.1-1-.5 0-.7.4-.4 1zM188.1 53.1c-1.3 1.7-2.1 3.3-1.8 3.5.3.3 1.5-.9 2.7-2.6 2.9-4.1 2-4.9-.9-.9zM190.6 55.2c-1.4 1.8-2.3 3.4-2.1 3.6.5.5 5.4-5 5.5-6.1 0-1.4-.9-.7-3.4 2.5zM194.3 77.9c0 1.1.5 1.8.9 1.5.4-.3.5-1.1.1-1.9-.7-2.1-1.2-1.9-1 .4zM198.7 81.1c.7.9 1 1.9.6 2.2-.3.4-.1.7.5.7 1.7 0 1.5-1.6-.5-3.1-1.6-1.2-1.7-1.2-.6.2zM203.1 82.7c-.1.6.4 1.5.9 1.8.8.5.7 1.2-.2 2.3-1 1.2-1 1.4-.1.8.7-.4 1.8-1.7 2.4-2.8.9-1.8.9-2-.4-1.5-.9.3-1.8.1-2.1-.6-.3-.9-.5-.9-.5 0zM191 93c-.8.5-1.2 1.1-1 1.4.3.2 1.4-.2 2.4-1 2.2-1.5 1-1.9-1.4-.4zM74.5 93c-.3.5-.1 1 .4 1 .6 0 1.1-.5 1.1-1 0-.6-.2-1-.4-1-.3 0-.8.4-1.1 1zM32.2 98.7c-2.4 3.4-5.4 10.4-4.7 11.1.2.3 1.2-1.2 2.1-3.4.9-2.1 2.7-5.4 4-7.2 1.4-1.7 2.1-3.2 1.5-3.2-.5 0-1.8 1.2-2.9 2.7zM42.3 103.5c1.5 1.4 3.3 2.5 4 2.5.7 0-.1-1.1-1.8-2.5-3.9-3.2-5.8-3.2-2.2 0zM229 100.6c1.6 2.5 3.2 5.9 3.5 7.5.7 3 2.5 5 2.5 2.7 0-1.6-4.4-10.7-6.3-13.1-2.8-3.4-2.6-1.6.3 2.9zM215.7 102.1c-2.2 1.1-3.7 2.3-3.4 2.5.7.7 7.3-2.2 8.1-3.5 1-1.6-.4-1.3-4.7 1zM217.2 104.3c-2.4 1.3-4 2.6-3.6 2.9.8.9 8.4-2.9 8.4-4.2 0-1.2.3-1.3-4.8 1.3zM218.8 106.7c-2.1.9-3.8 2-3.8 2.5 0 .6.8.7 1.8.3.9-.4 2.9-1.2 4.5-1.7 1.5-.5 2.7-1.4 2.7-1.9 0-1.2-.7-1-5.2.8zM208.7 109.7c-3.3 1.7-2.9 2.8.8 1.9 1.4-.4 2.5-1.3 2.5-2.1s-.1-1.5-.2-1.4c-.2.1-1.6.8-3.1 1.6zM51.7 131.1c-2 1.1-4.7 6.7-4.7 9.4 0 .9 1.1 2.7 2.4 4 2 2 3.1 2.3 5.6 1.9 2.5-.5 2.9-.4 2.4.9-.7 1.8 2.8 5.7 5.2 5.7 2.4 0 5.4-1.9 5.4-3.5 0-2.1 2-1.8 4.7.6 1.8 1.7 2.4 1.9 2.8.8 2-5.6 3.5-10.3 3.5-11 0-.5-1.7-.9-3.9-.9-3.5 0-3.8-.2-3.3-2.5.8-4.6-3.6-7.3-8.2-4.9-2.2 1.1-3 1.1-5.3-.2-3.3-1.6-4.2-1.7-6.6-.3zM24.7 146.7c-.3.5 1.2 1.4 3.4 2 3.7 1 5.8.1 2.2-1-1-.2-2.5-.8-3.4-1.2-1-.3-1.9-.2-2.2.2zM85.5 147c.3.5 1 1 1.6 1 .5 0 .9-.5.9-1 0-.6-.7-1-1.6-1-.8 0-1.2.4-.9 1zM23 149.5c0 .8 7.1 3.7 7.6 3.2.3-.2-.1-.9-.8-1.4-1.6-1.2-6.8-2.6-6.8-1.8zM33 151.9c-.8 1.6-.5 2.3 2 4.1 1.8 1.3 3.5 1.8 4.2 1.3.7-.4 1.7-.8 2.3-.8.5 0 1.1-.8 1.3-1.8.2-.9-.1-1.7-.7-1.7s-1.1-.7-1.1-1.5c0-2.4-6.7-2-8 .4zM53.7 153.4c-.3.8.1 2 .9 2.6 1.1 1 1.4.9 1.4-.9 0-2 .1-2 3 .5 1.6 1.5 2.7 3.1 2.3 3.7-.4.6.2.8 1.5.5 1.2-.4 2.2-.2 2.2.4 0 .5.4.6 1 .3 1.9-1.1-1.8-6.5-4.5-6.5-1.3 0-2.7-.5-3-1-.9-1.5-4.2-1.2-4.8.4zM177.5 187c.4 1.4 1.2 2.9 1.7 3.5.7.7.8.2.3-1.5-.4-1.4-1.2-3-1.7-3.5-.7-.7-.8-.2-.3 1.5zM175.1 187c0 .8.4 2.4.9 3.5l.9 2v-2c0-1.1-.4-2.7-.9-3.5-.9-1.3-1-1.3-.9 0zM173.6 190.3c.3 1 .9 1.5 1.2 1.2.3-.3 0-1.1-.7-1.8-1-.9-1.1-.8-.5.6zM117.8 11c.6 4-1.4 8.4-5.3 11.8-1.7 1.6-3.5 3.5-4 4.3-.4.8 1.3-.7 3.9-3.2 2.6-2.5 5.3-6.3 6-8.4 1.2-3.4 1.4-3.6 2-1.7.5 1.4-.1 3.6-1.8 6.5-1.4 2.4-2.6 4.8-2.6 5.3s1.4-1.5 3.1-4.5l3.1-5.4-1.8-3.8c-2-4.7-3.2-5-2.6-.9z"/><path d="M113.1 27.7c-.1 2.5 3.4 5.3 6.4 5.2 1.7-.1 1.6-.2-.5-.8-1.4-.4-2.7-1.7-3.1-3.1-.4-1.4-.8-1.8-.9-1-.1 1.1-.4.9-1-.5-.8-1.9-.9-1.9-.9.2zM110.9 35.5c-.3.5-.4 2.6-.2 4.7.4 3.1 1.1 4 4.9 6 2.4 1.2 4.4 2.8 4.4 3.5 0 2.9-2.1 6.2-4.2 6.6-1.3.2-.5.3 1.7 0 13.5-1.4 21-8.1 16.1-14.6-2.1-2.7-2.8-2-1.2 1.1 1.8 3.5 1.1 6.6-1.8 8.6-2 1.3-2.4 1.2-3.4-.4-.6-1-2.8-2.4-4.9-3-2.1-.7-5.2-2.1-7-3.2-2.7-1.6-3.2-2.6-3.5-6.1-.2-2.3-.6-3.8-.9-3.2zm12.9 16.3c.3 1.6-.2 2.2-1.6 2.2-1.5 0-1.8-.5-1.4-2.5.5-3 2.6-2.8 3 .3zM171 85.7c-.8.2-2.6 3-4 6.2-1.3 3.3-2.7 5.8-3.1 5.6-.3-.2-1.1-2.2-1.9-4.4-.9-2.7-1.9-4.1-3-4.1-1.5 0-1.8 1.3-1.9 10-.1 5.5-.5 10.8-.8 11.6-.4 1.2-.1 1.5 1.3 1.2 2.1-.4 2.1-.1 2.4-10.6l.2-7.7 1.6 3.7c1 2.1 2 3.8 2.4 3.8.3 0 1.4-2 2.4-4.5.9-2.5 1.8-4.4 2-4.2.2.2 0 4-.4 8.5-.8 8.2-.7 8.8 1.4 7.4.8-.5 3.6-22.2 3-22.8-.1 0-.8.1-1.6.3zM146.3 91c-2.9 1.2-3.5 3.7-3.1 14 .3 8.5.3 8.5 3.1 8.8 1.6.2 3.9-.3 5.1-1.2 2-1.3 2.4-2.6 3-10.4.3-4.9.4-9.6 0-10.6-.7-1.8-4.5-2-8.1-.6zm5.2 10.2c-.4 5.7-.8 10.4-.9 10.4 0 .1-1.1.5-2.3.8-2.3.7-2.3.7-2.3-9.8 0-11.3-.3-10.6 5.4-11.5.4 0 .5 4.5.1 10.1zM133.3 91.7c-3.8.7-4.4 2.6-4.1 12.9l.3 9.9 3.8.3c4.5.4 6.7-1.1 6.7-4.5 0-3.3-2.4-2.4-2.8 1-.3 2.1-.9 2.7-2.8 2.7-2.4 0-2.4 0-2.4-10.5V93h3c2.6 0 3 .4 3 2.6 0 1.6.5 2.4 1.3 2.2 1.9-.7 2-3.4.2-5.2-1.7-1.6-2.2-1.7-6.2-.9zM117.3 92.7c-2.2.4-2.2.8-2 12.1l.2 11.7 4.5-.3c6.2-.5 7-1.9 7-12.3 0-11.4-1.3-12.8-9.7-11.2zm6.5 11.5l-.3 10.3-2.7.3-2.8.3V94h6.1l-.3 10.2zM102.7 95.8c-1.3 1.4-1.5 3.3-1.1 9.7.8 11.8 1 12.5 4.2 12.5 1.5 0 3.8-.7 5-1.6 2-1.4 2.2-2.4 2.2-10.4 0-4.8-.3-9.5-.6-10.4-.9-2.3-7.6-2.1-9.7.2zm7.3 9.7c0 10.4 0 10.5-2.4 10.5-2.3 0-2.3-.3-2.9-9.8-.2-5.3-.3-10 0-10.5.2-.4 1.5-.7 2.9-.7 2.4 0 2.4 0 2.4 10.5zM97.4 95.8c-.6.4-2 3.1-3 5.9-1 2.9-2.1 5.3-2.5 5.3-.3 0-1.5-1.8-2.8-4-2.6-4.7-5.6-5.5-4.7-1.3.3 1.6.7 6.9.8 11.9.2 8 .4 9 2 8.6 1.5-.3 1.6-1.5 1.2-9.1l-.6-8.6 2.3 3.4 2.3 3.4 1.5-4.4 1.6-4.4.6 7.5c.3 4.1.4 7.8.2 8.2-.2.5.4.8 1.5.8 1.7 0 1.8-.7 1.5-10.8-.5-13.2-.5-13.3-1.9-12.4zM211.5 117l-2 .9h2c1.1 0 2.7-.4 3.5-.9 1.3-.9 1.3-1 0-.9-.8 0-2.4.4-3.5.9zM201.2 119.3l-2.2 2.3 2.9 1.7c3.4 2 6 .6 5.8-3.3-.3-3.4-3.6-3.8-6.5-.7zm2.5.4c-.4.3.1 1.2 1.1 1.9 1.4 1.1 1.4 1.3.2 1.4-.8 0-2.2-.5-3-1-1.3-.9-1.3-1.1 0-2 1.7-1.1 2.6-1.3 1.7-.3zM212.5 119c-1.3.5-1.4.9-.5.9.8 0 2.4-.4 3.5-.9 1.3-.5 1.4-.9.5-.9-.8 0-2.4.4-3.5.9zM213.8 120.8c-1.6.2-2.8.8-2.8 1.3 0 .8 4.8.2 5.9-.7.8-.7-.4-.9-3.1-.6zM238 122.4c0 .2.7.7 1.6 1 .8.3 1.2.2.9-.4-.6-1-2.5-1.4-2.5-.6zM215.6 127.5c.4 2.2 1.9 10.3 3.4 18l2.6 14-8 1.7c-27.1 5.8-34.8 7.6-32.1 7.7 1.7 0 7.3-.9 12.5-2l18.9-4c5.2-1.1 9.7-2.1 9.9-2.4.7-.6-5.9-33.7-7-35.5-.6-1-.7-.1-.2 2.5z"/><path d="M201.6 128.9l-2.9 3 3.4 2c1.9 1.2 4.2 2.1 5.1 2.1 2.4 0 3.8-3.2 2.9-6.6-1.1-4.2-4.8-4.4-8.5-.5zm6.4-1c0 .5-.3 1.6-.6 2.5-.5 1.3-1 1.3-2.7.4-2.2-1.1-2.2-1.1-.3 1 1.8 2.1 2 2.1 3.2.4 1.2-1.5 1.3-1.6 1.4 0 0 2.3-2 2.8-5.4 1.1-2.1-1.1-2.5-1.8-1.7-2.6.7-.7 1.9-1.2 2.9-1.2.9 0 1.6-.6 1.5-1.3-.2-.6.2-1.2.7-1.2.6 0 1 .4 1 .9zM188.3 130.9l-3.2 3 3.4 2.1c1.9 1.2 4.5 2 5.7 1.8 2-.3 2.3-.9 2.3-4.8 0-4.1-.2-4.5-2.5-4.7-1.6-.2-3.6.7-5.7 2.6zm6.3.6c-.4 1.6-.2 2.5.5 2.5.8 0 .8.4-.1 1.4-1.1 1.5-3.3 1.2-5.7-.6-1.9-1.5-.5-3.7 1.9-3 1.7.4 2 .2 1.5-1.1-.4-1.2-.1-1.7.9-1.7 1.2 0 1.5.6 1 2.5z"/><path d="M191.4 134.5c1.1.8 2.2 1.2 2.5.9.6-.6-1.9-2.4-3.4-2.4-.5.1-.1.7.9 1.5zM231 130c0 .5 1.6 1 3.5 1s3.5-.5 3.5-1c0-.6-1.6-1-3.5-1s-3.5.4-3.5 1zM196.5 141.2l-3.6 3.1 3 1.9c1.7 1.1 4.3 1.8 5.8 1.6 2.5-.3 2.8-.7 2.8-3.8.1-6.7-2.5-7.7-8-2.8zm6.3 0c-.3.7-1.5 1.9-2.9 2.5-1.3.7-1.8 1.3-1.1 1.3.6 0 1.2.5 1.2 1 0 .7-.7.7-2.1 0-2.6-1.4-1.9-3.6.9-3.2 1.5.2 2.2-.2 2.2-1.2 0-.9.5-1.6 1.1-1.6.6 0 .9.6.7 1.2zm1 4c-.2.6-1 1.4-1.6 1.6-.7.2-1-.2-.6-1.2.7-1.8 2.8-2.2 2.2-.4zM206.3 150.4l-3.7 3.4 3.4 2.1c4.2 2.5 5.4 2.6 7.4.5 1.7-1.6 1.3-5.6-.7-8.2-1.4-1.8-2.4-1.5-6.4 2.2zm5.4-.8c-.3.3-1.2.4-1.9.1-.8-.3-.5-.6.6-.6 1.1-.1 1.7.2 1.3.5zm-.7 2.4c0 .5-.2 1-.4 1-.3 0-.8-.5-1.1-1-.3-.6-.1-1 .4-1 .6 0 1.1.4 1.1 1zm-1 2.8c.8-.2 1.8-.8 2.2-1.3.4-.6.8-.2.8.7 0 1.3-.8 1.8-2.9 1.8-2.8 0-5.7-2.1-4.4-3.3.3-.4 1.1 0 1.7.9.7.8 1.8 1.4 2.6 1.2zM192.7 153.8c-2.7 2.8-2.7 2.9-.8 4.6 1.1 1 3.5 1.9 5.3 1.9 3.3.2 3.3.2 3.3-4.3 0-4.1-.2-4.5-2.5-4.8-1.7-.2-3.4.6-5.3 2.6zm2.3 3.4c0 .4-.4.8-.9.8-.6 0-1.2-.4-1.5-.8-.3-.5.1-.9.9-.9s1.5.4 1.5.9zM135.8 154.2c-.9.7-1.5 2.4-1.3 3.8.1 1.4.3 6.9.4 12.2.1 9.5.2 9.8 2.4 9.8 2.2 0 2.2-.2 1.9-10.7-.2-6-.6-12.1-1-13.6-.6-2.4-.9-2.6-2.4-1.5zM121 158.2c-5.8 1.6-6 2.1-6 13.3 0 7.7.4 10.6 1.4 11.4 1.7 1.4 7.6.6 11.9-1.6 2.7-1.3 2.7-1.5 2.7-11.2 0-5.5-.3-10.6-.6-11.5-.7-1.8-4.1-1.9-9.4-.4zm6 3.5c0 1.4-1.3 4.2-2.8 6.2-4.3 5.5-4.8 7.1-.8 2.6l3.6-4v7.1c0 6.6-.2 7.2-2.2 7.8-5.6 1.4-5.6 1.4-5.7-10.4l-.1-10.9 3.3-.9c4-1.1 4.7-.7 4.7 2.5zM98.3 162c-1.8.7-2.3 1.7-2.3 4.4 0 2 .6 3.6 1.4 3.9 2 .8 2.6-.2 2.6-4 0-3.1.2-3.3 3.5-3.3 3.2 0 3.5.2 3.5 3 0 2.1-1.5 4.6-5.5 9.1-4.2 4.7-5.5 6.9-5.3 8.8.3 2.4.7 2.6 5.3 2.5 8.3 0 10.5-1 10.5-4.4 0-3.2-1.1-4.3-3.2-3.5-1 .4-1.3 1.6-1 3.5.4 2.9.3 3-3.7 3-3.9 0-4.1-.1-4.1-3.1 0-2.3 1.4-4.6 5.5-9.4 5.6-6.4 6.4-8.2 4.3-10.3-1.4-1.4-8.3-1.5-11.5-.2zM79.3 184.5c-.6 1.9-.7 3.5-.3 3.5.9 0 2.5-5.9 1.8-6.6-.3-.2-.9 1.2-1.5 3.1zM81.6 184.8c-.5 1.8-.5 3.6-.2 3.9.7.7 1.9-4.3 1.3-5.9-.2-.7-.7.2-1.1 2zM84.6 184.6c-.8 2.1-.8 6.9 0 6.1.7-.6 1.5-7.7.9-7.7-.1 0-.6.7-.9 1.6zM99.2 206c0 1.9.2 2.7.5 1.7.2-.9.2-2.5 0-3.5-.3-.9-.5-.1-.5 1.8zM131.2 212.3c-1.3 2.6-3.4 5.3-4.5 5.9-1.2.6-6.9 1.4-12.7 1.6-11.6.5-12.5.1-13.3-5.3l-.4-3-.2 3.2c-.2 5.1 1.9 6.3 11.2 6.3h8.2l-.3 4.8c-.3 4.1.1 5.4 2.4 8.1 1.6 2 3.2 3 4.2 2.6 1.1-.4 1.3 0 .9 1.5-.3 1.2-.1 1.8.5 1.4.5-.3.8-1.5.5-2.5-.3-1 0-2 .7-2.2.6-.2.7-.8.3-1.3-.5-.5-1.5 0-2.3 1.1-1.5 2-1.6 2-4-.9-2-2.3-2.4-3.7-2.2-7.4.3-4.4.5-4.6 4.6-6 3-1 4.8-2.3 5.9-4.5 1.6-3 1.8-3 2.1-1 .4 2.7.8 2.7 4.2.7l2.5-1.5-2.7.5c-2.5.6-2.7.3-3-3.1l-.3-3.8-2.3 4.8z"/><path d="M143.1 212.1c-4.6 1.4-3.3 2.2 1.8 1 4.9-1.1 6.1.1 2.5 2.6-4.6 3.2-9.5 7.6-9 8 .3.3 2.2-.9 4.3-2.6 2.1-1.7 4.9-3.9 6.2-4.9 1.6-1.2 2.2-2.5 1.8-3.5-.7-1.9-2.5-2-7.6-.6z"/></svg>